<?xml version="1.0" encoding="UTF-8"?>
<svg id="Layer_1" data-name="Layer 1" xmlns="http://www.w3.org/2000/svg" xmlns:xlink="http://www.w3.org/1999/xlink" viewBox="0 0 600 600">
  <defs>
    <style>
      .cls-1 {
        fill: #e6e6e6;
      }

      .cls-2 {
        fill: url(#linear-gradient);
      }

      .cls-3 {
        fill: #fff;
      }
    </style>
    <linearGradient id="linear-gradient" x1="300" y1="2071.54" x2="300" y2="2133.61" gradientTransform="translate(0 2188.57) scale(1 -1)" gradientUnits="userSpaceOnUse">
      <stop offset="0" stop-color="#f43b00"/>
      <stop offset="1" stop-color="#ff5e00"/>
    </linearGradient>
  </defs>
  <g>
    <path class="cls-1" d="M565.64,175.82v248.16c0,18.13-9.68,34.87-25.38,43.93l-214.91,124.1c-15.7,9.06-35.04,9.06-50.74,0l-214.91-124.1c-15.7-9.06-25.37-25.81-25.38-43.93v-248.16c0-18.13,9.68-34.89,25.38-43.95L274.62,7.79c15.7-9.06,35.04-9.06,50.74,0l214.91,124.08c15.7,9.07,25.38,25.82,25.38,43.95Z"/>
    <path d="M299.98,599.8c-8.95,0-17.89-2.3-25.87-6.91l-214.91-124.1c-15.96-9.21-25.87-26.38-25.88-44.8v-248.17c0-18.43,9.92-35.61,25.88-44.83L274.11,6.91c15.96-9.22,35.79-9.21,51.74,0l214.91,124.08c15.96,9.22,25.88,26.39,25.88,44.83v248.16c0,18.43-9.92,35.6-25.88,44.81l-214.91,124.1c-7.98,4.6-16.93,6.91-25.87,6.91ZM299.99,2.02c-8.6,0-17.2,2.21-24.86,6.64L60.21,132.74c-15.34,8.86-24.87,25.36-24.87,43.08v248.16c0,17.7,9.54,34.2,24.87,43.06l214.91,124.1c15.34,8.85,34.39,8.85,49.73,0l214.91-124.1c15.34-8.85,24.87-25.35,24.87-43.06v-248.16c0-17.71-9.53-34.22-24.87-43.08L324.85,8.66c-7.67-4.43-16.27-6.64-24.86-6.64Z"/>
  </g>
  <path class="cls-3" d="M299.91,568.74c-3.63,0-7.19-.95-10.34-2.77l-214.91-124.08c-6.39-3.7-10.33-10.52-10.34-17.91v-248.16c.02-7.38,3.95-14.2,10.34-17.91l214.91-124.08c6.4-3.69,14.28-3.69,20.67,0l214.91,124.08c6.39,3.71,10.32,10.52,10.34,17.91v248.16c-.01,7.38-3.95,14.2-10.34,17.91l-214.91,124.08c-3.14,1.81-6.71,2.77-10.34,2.77Z"/>
  <g>
    <g>
      <path d="M338.29,136.39h-36.97c-.8,0-1.31.8-.9,1.51l2.01,4.12c.2.4.5.6,1,.6h13.97v32.85c0,.6.5,1,1.11,1h5.02c.6,0,1.11-.5,1.11-1v-32.85h13.76c.6,0,1-.5,1-1v-4.12c0-.6-.5-1-1-1l-.1-.1Z"/>
      <path d="M185.68,139.9c-1-2.11-3.21-3.42-5.63-3.42h-1.21c-2.41,0-4.52,1.31-5.63,3.42l-17.18,35.16c-.3.7.2,1.51,1,1.51h5.32c.4,0,.8-.2,1-.6l4.12-8.54h24.11l4.12,8.54c.2.4.5.6,1,.6h5.32c.8,0,1.31-.8,1-1.51l-17.18-35.16h-.2ZM170.3,161.5l8.04-16.88c.5-1,2.01-1,2.51,0l8.04,16.88h-18.59Z"/>
      <path d="M240.53,136.39h-5.32c-.4,0-.8.2-1,.6l-14.37,30.34c-.5,1-2.01,1-2.51,0l-14.57-30.34c-.2-.4-.5-.6-1-.6h-5.32c-.8,0-1.31.8-.9,1.51l17.28,35.16c1,2.11,3.21,3.42,5.53,3.42h.2c2.41,0,4.52-1.31,5.53-3.42l17.28-35.16c.3-.7-.2-1.51-.9-1.51h.1Z"/>
      <path d="M254.3,136.39h-5.02c-.6,0-1.11.5-1.11,1v37.98c0,.6.5,1,1.11,1h5.02c.6,0,1.11-.5,1.11-1v-37.88c0-.6-.5-1-1.11-1v-.1Z"/>
      <path d="M290.56,139.9c-1-2.11-3.21-3.42-5.63-3.42h-1.21c-2.41,0-4.52,1.31-5.63,3.42l-17.18,35.16c-.3.7.2,1.51,1,1.51h5.32c.4,0,.8-.2,1-.6l4.12-8.54h24.11l4.12,8.54c.2.4.5.6,1,.6h5.32c.8,0,1.31-.8.9-1.51l-17.18-35.16h-.1ZM275.19,161.5l8.04-16.88c.5-1,2.01-1,2.51,0l8.04,16.88h-18.59Z"/>
      <path d="M378.78,154.67c1.21-1.81,1.81-3.92,1.81-6.23s-.6-4.52-1.81-6.33c-1.21-1.81-2.91-3.21-5.02-4.22-2.11-1-4.72-1.51-7.54-1.51h-19.09c-.6,0-1.11.5-1.11,1v37.98c0,.6.5,1,1.11,1h5.02c.6,0,1.11-.5,1.11-1v-14.97h6.13l13.36,15.67c.2.2.5.4.8.4h5.83c.9,0,1.41-1,.8-1.71l-12.46-14.47c2.21-.2,4.32-.6,6.03-1.41,2.11-1,3.82-2.41,5.02-4.22h0ZM371.14,152.86c-1.41,1.11-3.32,1.61-5.73,1.61h-12.36v-11.96h12.36c2.41,0,4.32.5,5.73,1.61,1.41,1,2.11,2.51,2.11,4.42s-.7,3.32-2.11,4.42v-.1Z"/>
      <path d="M395.55,136.39h-5.02c-.6,0-1.11.5-1.11,1v37.98c0,.6.5,1,1.11,1h5.02c.6,0,1.11-.5,1.11-1v-37.88c0-.6-.5-1-1.11-1v-.1Z"/>
      <path d="M429.01,156.48l14.77-18.29c.6-.7,0-1.71-.8-1.71h-5.83c-.3,0-.7.1-.9.4l-11.45,14.27-11.45-14.27c-.2-.2-.6-.4-.9-.4h-5.83c-.9,0-1.41,1-.8,1.71l14.77,18.29-14.77,18.29c-.6.7,0,1.71.8,1.71h5.83c.3,0,.7-.1.9-.4l11.45-14.27,11.45,14.27c.2.2.6.4.9.4h5.83c.9,0,1.41-1,.8-1.71l-14.77-18.29Z"/>
    </g>
    <g>
      <path d="M192.82,293.84l25.83-75.74h24.07l26.56,75.74h-15.15l-22.51-65.68,5.29,2.28h-12.97l5.4-2.28-21.79,65.68h-14.73ZM210.87,273.71l4.67-12.45h30.71l4.57,12.45h-39.94Z"/>
      <path d="M311.72,295.81c-6.85,0-12.73-1.21-17.64-3.63-4.91-2.42-8.91-5.57-11.98-9.44-3.08-3.87-5.34-8.09-6.8-12.66-1.45-4.57-2.18-8.96-2.18-13.18v-2.28c0-4.7.74-9.34,2.23-13.9,1.49-4.57,3.79-8.72,6.9-12.45,3.11-3.74,7.07-6.73,11.88-8.97,4.81-2.25,10.5-3.37,17.07-3.37s12.81,1.23,17.9,3.68c5.08,2.46,9.15,5.91,12.19,10.38,3.04,4.46,4.88,9.67,5.5,15.61h-14.84c-.55-3.46-1.78-6.38-3.68-8.77-1.9-2.39-4.31-4.18-7.21-5.4-2.91-1.21-6.19-1.82-9.86-1.82s-7.06.64-9.96,1.92c-2.91,1.28-5.33,3.1-7.26,5.45-1.94,2.35-3.41,5.12-4.41,8.3-1,3.18-1.5,6.71-1.5,10.58s.5,7.2,1.5,10.38c1,3.18,2.51,5.97,4.51,8.35,2.01,2.39,4.48,4.24,7.42,5.55,2.94,1.32,6.35,1.97,10.22,1.97,5.67,0,10.46-1.4,14.37-4.2,3.91-2.8,6.28-6.73,7.11-11.78h14.84c-.69,5.4-2.53,10.34-5.5,14.84-2.98,4.5-7.05,8.09-12.24,10.79-5.19,2.7-11.38,4.05-18.57,4.05Z"/>
      <path d="M360.48,293.84v-75.74h14.42v75.74h-14.42ZM372.83,230.55v-12.45h33.51v12.45h-33.51ZM372.83,261.57v-12.45h31.64v12.45h-31.64ZM372.83,293.84v-12.45h34.34v12.45h-34.34Z"/>
    </g>
    <path class="cls-2" d="M339.69,96.85l-8.69-10.86-16.14-20.17-4.97-6.1c-2.38-3-6.1-4.76-9.93-4.76s-7.55,1.76-10.04,4.76l-4.97,6.1-16.14,20.17-8.69,10.86c-4.35,5.38-3.41,13.24,2.07,17.48,2.38,1.76,5.07,2.69,7.86,2.69s7.45-1.66,10.04-4.76l4.97-6.1,12.72-15.93-6.83-13.97,23.9,29.9,4.97,6.1c2.48,3.1,6.21,4.76,10.04,4.76s5.48-.83,7.86-2.69c5.48-4.24,6.52-12.1,2.17-17.48h-.21Z"/>
  </g>
  <path d="M331.91,335.57l-.38.48-16.41,20.86-4.99,6.34c-4.44,5.58-12.55,6.5-18.13,2.06-.76-.61-1.45-1.3-2.06-2.06l-5.01-6.34-16.49-20.81-.38-.48H34.33v88.41c0,18.13,9.68,34.87,25.38,43.93l214.91,124.08c15.7,9.06,35.04,9.06,50.74,0l214.91-124.12c15.7-9.06,25.37-25.81,25.38-43.93v-88.41h-233.73Z"/>
  <path class="cls-3" d="M299.91,39.12c2.21,0,4.38.59,6.3,1.7l214.91,124.08c3.89,2.26,6.29,6.42,6.3,10.92v248.16c0,4.5-2.4,8.66-6.3,10.92l-214.91,124.08c-3.9,2.25-8.7,2.25-12.6,0l-214.91-124.08c-3.9-2.26-6.29-6.42-6.3-10.92v-248.16c0-4.5,2.4-8.66,6.3-10.92l214.91-124.08c1.91-1.11,4.09-1.69,6.3-1.7M299.91,31.04c-3.63,0-7.19.95-10.34,2.77l-214.91,124.1c-6.39,3.71-10.32,10.52-10.34,17.91v248.16c.01,7.38,3.95,14.2,10.34,17.91l214.91,124.08c6.4,3.69,14.28,3.69,20.67,0l214.91-124.08c6.39-3.7,10.33-10.52,10.34-17.91v-248.16c-.02-7.38-3.95-14.2-10.34-17.91l-214.91-124.08c-3.14-1.81-6.71-2.77-10.34-2.77v-.02Z"/>
  <g>
    <path class="cls-1" d="M540.3,132.07L325.38,7.99c-15.7-9.06-35.04-9.06-50.73,0L59.74,132.07c-15.7,9.07-25.38,25.82-25.38,43.95v248.16c0,18.12,9.68,34.87,25.38,43.93l214.91,124.1c15.7,9.06,35.04,9.06,50.73,0l214.91-124.1c15.7-9.06,25.37-25.81,25.38-43.93v-248.16c0-18.13-9.68-34.89-25.38-43.95ZM535.53,424.19c-.01,7.38-3.95,14.2-10.34,17.91l-214.91,124.08c-6.4,3.69-14.28,3.69-20.67,0l-214.91-124.08c-6.39-3.7-10.33-10.52-10.34-17.91v-248.16c.02-7.38,3.95-14.2,10.34-17.91l214.91-124.1c3.14-1.81,6.71-2.77,10.34-2.77v.02c3.63,0,7.19.95,10.34,2.77l214.91,124.08c6.39,3.71,10.32,10.52,10.34,17.91v248.16Z"/>
    <path d="M300.01,600c-8.95,0-17.89-2.3-25.87-6.91l-214.91-124.1c-15.96-9.21-25.87-26.38-25.88-44.81v-248.16c0-18.43,9.92-35.61,25.88-44.83L274.14,7.11c15.96-9.21,35.78-9.21,51.74,0l214.91,124.08c15.96,9.22,25.88,26.39,25.88,44.83v248.16c0,18.43-9.92,35.6-25.88,44.81l-214.91,124.1c-7.98,4.6-16.93,6.91-25.87,6.91ZM300.01,2.22c-8.6,0-17.19,2.21-24.86,6.64L60.24,132.95c-15.34,8.86-24.87,25.36-24.87,43.08v248.16c0,17.71,9.54,34.2,24.87,43.06l214.91,124.1c15.34,8.85,34.39,8.85,49.73,0l214.91-124.1c15.34-8.85,24.87-25.35,24.87-43.06v-248.16c0-17.71-9.53-34.22-24.87-43.08L324.88,8.86c-7.67-4.43-16.27-6.64-24.86-6.64ZM299.94,569.94c-3.75,0-7.5-.96-10.84-2.89l-214.91-124.08c-6.68-3.87-10.83-11.07-10.84-18.78v-248.17c.02-7.71,4.17-14.91,10.84-18.78l214.91-124.1c3.29-1.9,7.04-2.9,10.84-2.9h0l1.01.04c3.45.16,6.83,1.15,9.83,2.88l214.91,124.08c6.67,3.87,10.83,11.07,10.84,18.78v248.17c0,7.72-4.16,14.91-10.84,18.78l-214.91,124.08c-3.34,1.93-7.09,2.89-10.84,2.89ZM299.05,32.28c-3.14.14-6.21,1.04-8.94,2.61l-214.91,124.1c-6.05,3.51-9.82,10.04-9.83,17.04v248.16c.01,7,3.78,13.53,9.83,17.03l214.91,124.08c6.07,3.5,13.6,3.5,19.66,0l214.91-124.08c6.05-3.51,9.82-10.04,9.83-17.03v-248.16c-.01-6.99-3.78-13.52-9.83-17.03l-214.91-124.08c-2.98-1.72-6.38-2.63-9.83-2.63h-.9Z"/>
  </g>
  <polygon points="299.97 318.76 305.39 329.72 317.5 331.48 308.74 340.02 310.8 352.07 299.97 346.38 289.15 352.07 291.21 340.02 282.45 331.48 294.56 329.72 299.97 318.76"/>
  <g>
    <path class="cls-3" d="M166.52,446.27l10.7-32.42h11.77l11.1,32.42h-7.55l-8.97-27.41,2.31.93h-5.73l2.4-.93-8.75,27.41h-7.29ZM174.65,438.23l2.22-6.04h12.7l2.27,6.04h-17.19Z"/>
    <path class="cls-3" d="M215.42,447.11c-2.93,0-5.4-.47-7.42-1.4-2.01-.93-3.54-2.2-4.57-3.82-1.04-1.61-1.55-3.47-1.55-5.57h7.06c0,.83.23,1.6.69,2.31.46.71,1.16,1.28,2.11,1.71.95.43,2.18.64,3.69.64,1.36,0,2.5-.18,3.42-.53.92-.35,1.61-.85,2.09-1.49s.71-1.37.71-2.2c0-1.04-.45-1.86-1.33-2.46-.89-.61-2.32-1-4.31-1.18l-2.44-.22c-3.23-.27-5.8-1.27-7.73-3.02-1.93-1.75-2.89-4.06-2.89-6.93,0-2.07.5-3.86,1.49-5.37s2.38-2.67,4.15-3.49c1.78-.81,3.88-1.22,6.31-1.22,2.55,0,4.73.44,6.55,1.31,1.82.87,3.22,2.1,4.2,3.68.98,1.59,1.47,3.44,1.47,5.58h-7.11c0-.8-.19-1.53-.58-2.2-.38-.66-.95-1.2-1.71-1.62-.76-.41-1.7-.62-2.82-.62-1.06,0-1.96.18-2.69.53s-1.27.84-1.62,1.44c-.35.61-.53,1.27-.53,1.98,0,.92.33,1.72.98,2.4.65.68,1.72,1.08,3.2,1.2l2.49.22c2.37.21,4.46.72,6.26,1.53,1.81.82,3.22,1.93,4.24,3.33,1.02,1.41,1.53,3.12,1.53,5.13s-.54,3.89-1.62,5.44c-1.08,1.55-2.61,2.76-4.6,3.62-1.98.86-4.35,1.29-7.11,1.29Z"/>
    <path class="cls-3" d="M245.05,447.11c-2.93,0-5.4-.47-7.42-1.4-2.01-.93-3.54-2.2-4.57-3.82-1.04-1.61-1.55-3.47-1.55-5.57h7.06c0,.83.23,1.6.69,2.31.46.71,1.16,1.28,2.11,1.71.95.43,2.18.64,3.69.64,1.36,0,2.5-.18,3.42-.53.92-.35,1.61-.85,2.09-1.49s.71-1.37.71-2.2c0-1.04-.45-1.86-1.33-2.46-.89-.61-2.32-1-4.31-1.18l-2.44-.22c-3.23-.27-5.8-1.27-7.73-3.02-1.93-1.75-2.89-4.06-2.89-6.93,0-2.07.5-3.86,1.49-5.37s2.38-2.67,4.15-3.49c1.78-.81,3.88-1.22,6.31-1.22,2.55,0,4.73.44,6.55,1.31,1.82.87,3.22,2.1,4.2,3.68.98,1.59,1.47,3.44,1.47,5.58h-7.11c0-.8-.19-1.53-.58-2.2-.38-.66-.95-1.2-1.71-1.62-.76-.41-1.7-.62-2.82-.62-1.06,0-1.96.18-2.69.53s-1.27.84-1.62,1.44c-.35.61-.53,1.27-.53,1.98,0,.92.33,1.72.98,2.4.65.68,1.72,1.08,3.2,1.2l2.49.22c2.37.21,4.46.72,6.26,1.53,1.81.82,3.22,1.93,4.24,3.33,1.02,1.41,1.53,3.12,1.53,5.13s-.54,3.89-1.62,5.44c-1.08,1.55-2.61,2.76-4.6,3.62-1.98.86-4.35,1.29-7.11,1.29Z"/>
    <path class="cls-3" d="M278.94,447.11c-2.93,0-5.48-.51-7.66-1.53s-3.97-2.37-5.4-4.04c-1.42-1.67-2.48-3.49-3.18-5.44s-1.04-3.83-1.04-5.64v-.98c0-2.01.36-4,1.09-5.97.73-1.97,1.81-3.75,3.26-5.35,1.45-1.6,3.26-2.88,5.42-3.84s4.66-1.44,7.51-1.44,5.34.48,7.51,1.44c2.16.96,3.97,2.24,5.42,3.84s2.55,3.38,3.29,5.35c.74,1.97,1.11,3.96,1.11,5.97v.98c0,1.81-.35,3.69-1.06,5.64-.71,1.95-1.78,3.77-3.2,5.44-1.42,1.67-3.22,3.02-5.4,4.04-2.17,1.02-4.73,1.53-7.66,1.53ZM278.94,440.32c1.54,0,2.92-.27,4.15-.8,1.23-.53,2.28-1.27,3.15-2.22.87-.95,1.53-2.04,1.98-3.29.44-1.24.67-2.57.67-4,0-1.51-.23-2.89-.69-4.15-.46-1.26-1.13-2.35-2-3.29-.87-.93-1.92-1.65-3.13-2.15s-2.59-.76-4.13-.76-2.92.25-4.13.76-2.26,1.22-3.13,2.15-1.53,2.03-1.98,3.29c-.45,1.26-.67,2.64-.67,4.15,0,1.42.22,2.75.67,4,.44,1.24,1.1,2.34,1.98,3.29.87.95,1.92,1.69,3.13,2.22,1.21.53,2.59.8,4.13.8Z"/>
    <path class="cls-3" d="M316.65,447.11c-2.93,0-5.45-.51-7.55-1.53-2.1-1.02-3.82-2.37-5.15-4.04-1.33-1.67-2.32-3.48-2.95-5.42-.64-1.94-.96-3.83-.96-5.66v-.98c0-2.01.33-4,.98-5.97.65-1.97,1.65-3.75,3-5.35,1.34-1.6,3.05-2.88,5.11-3.84s4.5-1.44,7.31-1.44,5.52.55,7.77,1.64c2.25,1.1,4.05,2.61,5.4,4.55,1.34,1.94,2.14,4.21,2.37,6.82h-7.33c-.21-1.3-.68-2.41-1.42-3.33-.74-.92-1.7-1.63-2.86-2.13-1.17-.5-2.48-.76-3.93-.76s-2.74.25-3.86.76-2.07,1.21-2.82,2.13c-.76.92-1.33,2.01-1.73,3.26-.4,1.26-.6,2.66-.6,4.2s.2,2.89.6,4.15c.4,1.26.99,2.35,1.78,3.29s1.75,1.64,2.91,2.13c1.16.49,2.47.73,3.95.73,2.25,0,4.16-.55,5.71-1.64s2.49-2.61,2.82-4.53h7.28c-.26,2.37-1.06,4.54-2.37,6.51-1.32,1.97-3.11,3.54-5.37,4.71-2.27,1.17-4.95,1.75-8.06,1.75Z"/>
    <path class="cls-3" d="M337.39,446.27v-32.42h7.29v32.42h-7.29Z"/>
    <path class="cls-3" d="M348.98,446.27l10.7-32.42h11.77l11.1,32.42h-7.55l-8.97-27.41,2.31.93h-5.73l2.4-.93-8.75,27.41h-7.28ZM357.11,438.23l2.22-6.04h12.7l2.27,6.04h-17.19Z"/>
    <path class="cls-3" d="M381.23,420.2v-6.35h25.54v6.35h-25.54ZM390.33,446.27v-26.96h7.28v26.96h-7.28Z"/>
    <path class="cls-3" d="M411.34,446.27v-32.42h7.11v32.42h-7.11ZM417.56,419.89v-6.04h13.86v6.04h-13.86ZM417.56,432.81v-6.04h13.15v6.04h-13.15ZM417.56,446.27v-6.04h14.17v6.04h-14.17Z"/>
  </g>
</svg>